HIERARCHY
ROOT Hips
{
 OFFSET 0.000000 0.000000 0.000000
 CHANNELS 6 Xposition Yposition Zposition Yrotation Xrotation Zrotation
 JOINT Chest
 {
  OFFSET 0.000000 12.953391 -0.028419
  CHANNELS 3 Yrotation Xrotation Zrotation
  JOINT Chest2
  {
   OFFSET 0.000000 10.280254 0.051622
   CHANNELS 3 Yrotation Xrotation Zrotation
   JOINT Chest3
   {
    OFFSET 0.000000 9.287180 0.000000
    CHANNELS 3 Yrotation Xrotation Zrotation
    JOINT Chest4
    {
     OFFSET 0.000000 9.287180 0.000000
     CHANNELS 3 Yrotation Xrotation Zrotation
     JOINT Neck
     {
      OFFSET 0.000000 13.296264 0.000000
      CHANNELS 3 Yrotation Xrotation Zrotation
      JOINT Head
      {
       OFFSET 0.000000 8.959264 0.099003
       CHANNELS 3 Yrotation Xrotation Zrotation
       End Site
       {
        OFFSET 0.000000 17.121337 0.039303
       }
      }
     }
     JOINT RightCollar
     {
      OFFSET -3.193511 7.451388 0.000000
      CHANNELS 3 Yrotation Xrotation Zrotation
      JOINT RightShoulder
      {
       OFFSET -15.792092 0.000000 0.000000
       CHANNELS 3 Yrotation Xrotation Zrotation
       JOINT RightElbow
       {
        OFFSET -31.151839 0.000000 0.000000
        CHANNELS 3 Yrotation Xrotation Zrotation
        JOINT RightWrist
        {
         OFFSET -25.536298 0.000000 0.002321
         CHANNELS 3 Yrotation Xrotation Zrotation
         End Site
         {
          OFFSET -19.133213 0.000000 0.000000
         }
        }
       }
      }
     }
     JOINT LeftCollar
     {
      OFFSET 3.193511 7.451388 0.000000
      CHANNELS 3 Yrotation Xrotation Zrotation
      JOINT LeftShoulder
      {
       OFFSET 15.792092 0.000000 0.000000
       CHANNELS 3 Yrotation Xrotation Zrotation
       JOINT LeftElbow
       {
        OFFSET 31.151839 0.000000 0.000000
        CHANNELS 3 Yrotation Xrotation Zrotation
        JOINT LeftWrist
        {
         OFFSET 25.536298 0.000000 0.002321
         CHANNELS 3 Yrotation Xrotation Zrotation
         End Site
         {
          OFFSET 19.133213 0.000000 0.000000
         }
        }
       }
      }
     }
    }
   }
  }
 }
 JOINT RightHip
 {
  OFFSET -10.745749 0.139252 0.014209
  CHANNELS 3 Yrotation Xrotation Zrotation
  JOINT RightKnee
  {
   OFFSET 0.000000 -43.743899 -0.006071
   CHANNELS 3 Yrotation Xrotation Zrotation
   JOINT RightAnkle
   {
    OFFSET 0.000000 -43.214199 0.089931
    CHANNELS 3 Yrotation Xrotation Zrotation
    JOINT RightToe
    {
     OFFSET 0.000000 -9.699830 19.151588
     CHANNELS 3 Yrotation Xrotation Zrotation
     End Site
     {
      OFFSET 0.000000 -1.292898 4.893873
     }
    }
   }
  }
 }
 JOINT LeftHip
 {
  OFFSET 10.745749 0.139252 0.014209
  CHANNELS 3 Yrotation Xrotation Zrotation
  JOINT LeftKnee
  {
   OFFSET 0.000000 -43.743899 -0.006071
   CHANNELS 3 Yrotation Xrotation Zrotation
   JOINT LeftAnkle
   {
    OFFSET 0.000000 -43.214199 0.089931
    CHANNELS 3 Yrotation Xrotation Zrotation
    JOINT LeftToe
    {
     OFFSET 0.000000 -9.699830 19.151588
     CHANNELS 3 Yrotation Xrotation Zrotation
     End Site
     {
      OFFSET 0.000000 -1.292898 4.893873
     }
    }
   }
  }
 }
}
MOTION
Frames: 15
Frame Time: 0.016667
-148.129366 98.322965 -175.266935 -0.487447 -6.657224 -0.139909 -0.937907 6.715908 0.595298 -0.424739 2.983642 0.277703 -0.424739 2.983642 0.277703 -0.319839 2.237540 0.210306 -0.887798 23.010593 0.292309 -1.677297 6.556555 0.763319 5.255402 11.566556 9.615335 11.277006 -18.494652 70.386495 -3.479137 16.578729 0.161466 24.955940 9.486984 -19.433874 -3.875844 14.033594 -12.111706 -16.177535 -20.887218 -69.295916 -3.216480 5.062325 -0.036145 -8.111353 -0.088138 12.497453 -0.960734 9.346551 3.666984 -0.817902 5.440642 -0.637705 -4.056712 -6.833904 -1.692081 0.000000 0.000000 0.000000 -2.785346 9.244514 0.675759 -0.291449 4.986895 0.229897 -5.426787 -6.854871 -0.282446 0.000000 0.000000 -0.000000
-148.119155 98.324136 -175.254510 -0.512939 -6.650347 -0.150945 -0.930470 6.716439 0.601259 -0.421526 2.983876 0.280241 -0.421526 2.983876 0.280241 -0.317443 2.237715 0.212193 -0.886873 23.070541 0.312314 -1.680388 6.668194 0.798301 5.235546 11.559145 9.620660 11.251152 -18.462296 70.388291 -3.439702 16.554712 0.163141 24.936553 9.500531 -19.484890 -3.886101 14.029622 -12.107670 -16.174093 -20.862916 -69.299614 -3.197494 5.071304 -0.027499 -8.107084 -0.093304 12.519112 -0.942589 9.334216 3.675196 -0.804432 5.460143 -0.640497 -4.064484 -6.838062 -1.686951 0.000000 0.000000 0.000000 -2.772767 9.251066 0.679914 -0.290056 4.983934 0.229546 -5.412559 -6.864142 -0.274418 0.000000 -0.000000 -0.000000
-148.108670 98.325024 -175.242306 -0.541591 -6.641506 -0.157881 -0.923717 6.717526 0.604778 -0.418582 2.984361 0.281707 -0.418582 2.984361 0.281707 -0.315243 2.238079 0.213278 -0.889667 23.112531 0.322604 -1.687748 6.746380 0.817015 5.221475 11.551596 9.626034 11.232361 -18.435678 70.387360 -3.408320 16.540048 0.172363 24.922035 9.516808 -19.523433 -3.896022 14.021274 -12.103059 -16.168514 -20.834503 -69.305091 -3.179130 5.059617 -0.022259 -8.103390 -0.090188 12.530762 -0.924785 9.320958 3.678650 -0.793147 5.477198 -0.642995 -4.066639 -6.842177 -1.682577 0.000000 0.000000 0.000000 -2.757227 9.255924 0.680520 -0.287992 4.980051 0.228951 -5.400085 -6.872182 -0.265930 -0.000000 -0.000000 0.000000
-148.097198 98.325388 -175.230429 -0.576391 -6.632733 -0.157761 -0.917335 6.722063 0.604108 -0.415746 2.986387 0.281325 -0.415746 2.986387 0.281325 -0.313115 2.239601 0.212979 -0.898653 23.121501 0.319447 -1.703007 6.763113 0.813595 5.217294 11.544219 9.629700 11.233311 -18.419094 70.377329 -3.394727 16.539112 0.195107 24.912703 9.539932 -19.537133 -3.901852 14.003397 -12.095069 -16.156695 -20.799683 -69.313917 -3.167857 5.008674 -0.026331 -8.101945 -0.072304 12.524279 -0.905733 9.309035 3.673836 -0.787890 5.490830 -0.645131 -4.057960 -6.846519 -1.679450 -0.000000 -0.000000 0.000000 -2.734284 9.260841 0.674473 -0.286373 4.975680 0.228618 -5.390773 -6.878709 -0.255988 0.000000 0.000000 0.000000
-148.085451 98.325469 -175.218773 -0.614350 -6.621989 -0.153545 -0.911639 6.727154 0.600993 -0.413180 2.988663 0.279870 -0.413180 2.988663 0.279870 -0.311184 2.241310 0.211877 -0.911374 23.112503 0.306588 -1.722591 6.746370 0.793933 5.218899 11.536703 9.633411 11.241314 -18.408247 70.364606 -3.389196 16.547538 0.225362 24.908178 9.565797 -19.538352 -3.907345 13.981147 -12.086492 -16.142748 -20.760752 -69.324524 -3.157219 4.937078 -0.033874 -8.101077 -0.046106 12.507817 -0.887019 9.296189 3.664266 -0.784818 5.502015 -0.646980 -4.043664 -6.850822 -1.677083 -0.000000 -0.000000 0.000000 -2.708385 9.264063 0.664875 -0.284084 4.970388 0.228040 -5.383214 -6.884003 -0.245584 0.000000 0.000000 0.000000
-148.074618 98.325093 -175.205722 -0.645956 -6.608371 -0.150171 -0.907456 6.729853 0.597470 -0.411276 2.989875 0.278251 -0.411276 2.989875 0.278251 -0.309749 2.242221 0.210655 -0.922414 23.101392 0.291827 -1.738659 6.725647 0.770431 5.219047 11.535907 9.639667 11.242976 -18.409796 70.360145 -3.392532 16.557695 0.244351 24.907768 9.581279 -19.545307 -3.918743 13.970427 -12.083561 -16.134821 -20.737186 -69.330462 -3.132697 4.880197 -0.031101 -8.102000 -0.028561 12.490749 -0.873859 9.284882 3.655658 -0.779542 5.507733 -0.648964 -4.032218 -6.854171 -1.674131 0.000000 -0.000000 0.000000 -2.695194 9.265346 0.655337 -0.275664 4.964045 0.226852 -5.374674 -6.889626 -0.236524 -0.000000 -0.000000 0.000000
-148.065295 98.323875 -175.190035 -0.666708 -6.589395 -0.149217 -0.906051 6.727702 0.593753 -0.410596 2.988928 0.276578 -0.410596 2.988928 0.276578 -0.309231 2.241512 0.209396 -0.930583 23.091555 0.276945 -1.749515 6.707247 0.745935 5.216995 11.547030 9.650544 11.231359 -18.428212 70.371086 -3.406333 16.564314 0.241466 24.909826 9.579861 -19.571550 -3.942557 13.980839 -12.090771 -16.147227 -20.728355 -69.325814 -3.093288 4.852326 0.000566 -8.103529 -0.026655 12.477481 -0.870862 9.275940 3.649709 -0.768142 5.504121 -0.651394 -4.027302 -6.855797 -1.669904 0.000000 0.000000 0.000000 -2.705861 9.263904 0.646446 -0.254616 4.954512 0.224678 -5.364048 -6.895822 -0.229824 0.000000 0.000000 0.000000
-148.056884 98.322199 -175.172955 -0.681109 -6.567547 -0.149103 -0.906159 6.723158 0.589633 -0.410579 2.986917 0.274743 -0.410579 2.986917 0.274743 -0.309209 2.240005 0.208019 -0.937072 23.079608 0.260159 -1.756853 6.684871 0.717592 5.213493 11.564875 9.663958 11.213403 -18.459010 70.390326 -3.429001 16.572640 0.227296 24.916043 9.568053 -19.603504 -3.972285 14.002770 -12.103655 -16.165644 -20.734874 -69.316467 -3.039970 4.839088 0.042555 -8.106868 -0.033400 12.463579 -0.873420 9.268538 3.644725 -0.754541 5.495041 -0.653958 -4.025235 -6.856467 -1.665090 0.000000 0.000000 -0.000000 -2.729235 9.260521 0.637632 -0.227437 4.943927 0.221887 -5.352442 -6.902347 -0.224469 -0.000000 0.000000 0.000000
-148.048779 98.321045 -175.156595 -0.693151 -6.549390 -0.150024 -0.904808 6.720652 0.586517 -0.409932 2.985811 0.273336 -0.409932 2.985811 0.273336 -0.308716 2.239176 0.206960 -0.940045 23.071263 0.243887 -1.757957 6.669147 0.689192 5.203533 11.580701 9.676176 11.196535 -18.495430 70.407443 -3.456574 16.590818 0.214851 24.930723 9.552283 -19.618693 -3.994645 14.023308 -12.114999 -16.155265 -20.778121 -69.313680 -2.961259 4.832895 0.053011 -8.116815 -0.044806 12.445136 -0.872929 9.262660 3.641318 -0.746111 5.489062 -0.656143 -4.023442 -6.857572 -1.660411 0.000000 0.000000 0.000000 -2.747520 9.257317 0.630767 -0.208162 4.938580 0.219229 -5.340430 -6.910039 -0.219227 0.000000 0.000000 0.000000
-148.040049 98.320940 -175.141765 -0.703521 -6.538879 -0.151606 -0.900860 6.722936 0.584489 -0.408153 2.986834 0.272384 -0.408153 2.986834 0.272384 -0.307378 2.239946 0.206238 -0.938775 23.066838 0.228398 -1.751590 6.660659 0.661021 5.184960 11.591052 9.685729 11.201644 -18.530434 70.412715 -3.487178 16.618087 0.208522 24.961979 9.528333 -19.600486 -4.004508 14.040398 -12.120420 -16.092784 -20.874217 -69.332942 -2.860769 4.821312 0.016789 -8.136928 -0.060726 12.416531 -0.865590 9.260076 3.638754 -0.747790 5.488768 -0.657494 -4.020327 -6.859334 -1.655564 0.000000 -0.000000 0.000000 -2.754513 9.255501 0.625893 -0.203718 4.942439 0.216420 -5.327391 -6.919215 -0.213528 -0.000000 0.000000 -0.000000
-148.031625 98.321357 -175.127656 -0.711533 -6.532059 -0.154218 -0.895452 6.727257 0.583464 -0.405744 2.988764 0.271858 -0.405744 2.988764 0.271858 -0.305569 2.241394 0.205833 -0.933995 23.066022 0.213415 -1.739003 6.658837 0.632775 5.159926 11.599384 9.694095 11.207850 -18.571067 70.415846 -3.522704 16.655216 0.203904 25.001657 9.500426 -19.565540 -4.006995 14.056101 -12.124287 -16.001396 -21.007042 -69.359084 -2.734721 4.816915 -0.050614 -8.163568 -0.081274 12.383311 -0.855201 9.259016 3.637763 -0.754640 5.491577 -0.658462 -4.017487 -6.861531 -1.650852 0.000000 0.000000 0.000000 -2.756418 9.253868 0.622958 -0.207176 4.951538 0.213750 -5.313946 -6.929558 -0.207943 0.000000 -0.000000 -0.000000
-148.025694 98.321685 -175.113959 -0.719132 -6.523621 -0.159179 -0.889018 6.729792 0.584590 -0.402908 2.989896 0.272269 -0.402908 2.989896 0.272269 -0.303446 2.242245 0.206128 -0.926060 23.073595 0.200532 -1.721223 6.672592 0.607366 5.129882 11.607326 9.701961 11.159887 -18.631696 70.435649 -3.564882 16.712662 0.200739 25.029620 9.487665 -19.541271 -4.004191 14.063691 -12.132487 -15.916187 -21.149717 -69.357219 -2.560651 4.849840 -0.144980 -8.190812 -0.102843 12.358363 -0.844547 9.254150 3.641158 -0.759214 5.498305 -0.659888 -4.017135 -6.864886 -1.647900 0.000000 -0.000000 0.000000 -2.754057 9.250924 0.623670 -0.211777 4.960271 0.212839 -5.302535 -6.940952 -0.202947 -0.000000 -0.000000 0.000000
-148.023755 98.322054 -175.101187 -0.724517 -6.510472 -0.167725 -0.881749 6.728125 0.589651 -0.399755 2.989155 0.274406 -0.399755 2.989155 0.274406 -0.301092 2.241689 0.207714 -0.913541 23.094280 0.189674 -1.695625 6.710677 0.584216 5.092330 11.614904 9.709194 11.010313 -18.723106 70.485147 -3.595962 16.798175 0.208437 25.033381 9.506763 -19.535944 -3.994890 14.058587 -12.149824 -15.845655 -21.311627 -69.303470 -2.297643 4.949798 -0.286692 -8.223249 -0.128510 12.338547 -0.836330 9.241935 3.651172 -0.758093 5.509818 -0.662270 -4.021347 -6.869427 -1.647773 0.000000 -0.000000 0.000000 -2.746993 9.244265 0.629735 -0.216857 4.966724 0.214921 -5.294813 -6.952809 -0.198641 -0.000000 -0.000000 0.000000
-148.024308 98.322335 -175.088827 -0.729492 -6.495706 -0.178621 -0.873454 6.724671 0.596862 -0.396176 2.987617 0.277478 -0.396176 2.987617 0.277478 -0.298422 2.240535 0.210000 -0.897863 23.123357 0.180930 -1.664837 6.764346 0.563936 5.049763 11.622087 9.715924 10.806309 -18.834310 70.551849 -3.633801 16.904000 0.217414 25.025461 9.541015 -19.541306 -3.980298 14.045378 -12.171502 -15.781674 -21.483555 -69.221565 -1.986899 5.088061 -0.454457 -8.256393 -0.155168 12.327004 -0.827851 9.225914 3.665568 -0.754699 5.525250 -0.665109 -4.028049 -6.875126 -1.649404 0.000000 -0.000000 -0.000000 -2.735665 9.236293 0.639444 -0.223080 4.972813 0.218765 -5.289123 -6.965716 -0.194924 0.000000 0.000000 -0.000000
-148.025046 98.321526 -175.075030 -0.741400 -6.483300 -0.189480 -0.863995 6.722850 0.602024 -0.392052 2.986810 0.279628 -0.392052 2.986810 0.279628 -0.295340 2.239930 0.211591 -0.883652 23.151437 0.176142 -1.637753 6.816243 0.551194 5.011121 11.630417 9.723226 10.634644 -18.947141 70.616114 -3.733571 17.017281 0.198477 25.023236 9.559382 -19.559912 -3.966123 14.031080 -12.189021 -15.734347 -21.610671 -69.147621 -1.729179 5.206313 -0.582568 -8.270775 -0.170094 12.346167 -0.813790 9.211389 3.680450 -0.751845 5.542817 -0.667754 -4.033228 -6.882618 -1.651220 0.000000 0.000000 0.000000 -2.722205 9.232725 0.649387 -0.225673 4.978667 0.222299 -5.282936 -6.981319 -0.191962 -0.000000 -0.000000 0.000000
